<svg xmlns="http://www.w3.org/2000/svg" viewBox="0 0 1440 600" preserveAspectRatio="xMidYMax slice">
  <!-- Back range — lightest -->
  <path d="M0,420 L80,310 L160,370 L260,240 L360,320 L440,200 L520,280 L600,180 L680,260 L760,140 L840,230 L920,150 L1000,240 L1080,170 L1160,250 L1260,160 L1360,230 L1440,190 L1440,600 L0,600 Z"
    fill="currentColor" opacity="0.3"/>
  <!-- Mid range -->
  <path d="M0,500 L100,380 L200,440 L320,300 L420,390 L520,280 L620,370 L720,260 L820,360 L920,240 L1020,340 L1120,250 L1220,340 L1340,260 L1440,320 L1440,600 L0,600 Z"
    fill="currentColor" opacity="0.5"/>
  <!-- Front range — darkest -->
  <path d="M0,560 L120,440 L220,510 L360,380 L460,470 L580,350 L680,450 L800,320 L900,430 L1020,360 L1120,450 L1240,370 L1340,440 L1440,400 L1440,600 L0,600 Z"
    fill="currentColor" opacity="0.7"/>
</svg>
